<!-- filepath: /Users/sebastian.sigl/Private/Workspace/personal-website/src/images/social/infographic.svg -->
<svg width="64" height="64" viewBox="0 0 64 64" xmlns="http://www.w3.org/2000/svg">
  <defs>
    <linearGradient id="chartGradient" x1="0%" y1="0%" x2="100%" y2="100%">
      <stop offset="0%" style="stop-color:#4f46e5;stop-opacity:0.9"/>
      <stop offset="100%" style="stop-color:#06b6d4;stop-opacity:0.9"/>
    </linearGradient>
    <linearGradient id="backgroundGradient" x1="0%" y1="0%" x2="100%" y2="100%">
      <stop offset="0%" style="stop-color:#f8fafc;stop-opacity:1"/>
      <stop offset="100%" style="stop-color:#e2e8f0;stop-opacity:1"/>
    </linearGradient>
  </defs>
  
  <!-- Background -->
  <rect x="2" y="2" width="60" height="60" rx="8" fill="url(#backgroundGradient)" stroke="#cbd5e1" stroke-width="1"/>
  
  <!-- Bar Chart Section -->
  <g transform="translate(6, 8)">
    <!-- Bar chart bars -->
    <rect x="2" y="12" width="4" height="8" fill="#ef4444" rx="1"/>
    <rect x="8" y="8" width="4" height="12" fill="#f97316" rx="1"/>
    <rect x="14" y="4" width="4" height="16" fill="#eab308" rx="1"/>
    <rect x="20" y="10" width="4" height="10" fill="#22c55e" rx="1"/>
    
    <!-- Bar chart base line -->
    <line x1="0" y1="21" x2="26" y2="21" stroke="#64748b" stroke-width="1"/>
    <line x1="0" y1="21" x2="0" y2="2" stroke="#64748b" stroke-width="1"/>
  </g>
  
  <!-- Pie Chart Section -->
  <g transform="translate(38, 8)">
    <circle cx="10" cy="10" r="9" fill="#f1f5f9" stroke="#cbd5e1" stroke-width="1"/>
    <!-- Pie segments -->
    <path d="M 10 1 A 9 9 0 0 1 16.794 6.206 L 10 10 Z" fill="#4f46e5"/>
    <path d="M 16.794 6.206 A 9 9 0 0 1 16.794 13.794 L 10 10 Z" fill="#06b6d4"/>
    <path d="M 16.794 13.794 A 9 9 0 0 1 3.206 13.794 L 10 10 Z" fill="#10b981"/>
    <path d="M 3.206 13.794 A 9 9 0 0 1 10 1 L 10 10 Z" fill="#f59e0b"/>
  </g>
  
  <!-- Line Graph Section -->
  <g transform="translate(6, 32)">
    <!-- Grid lines -->
    <line x1="0" y1="4" x2="24" y2="4" stroke="#e2e8f0" stroke-width="0.5"/>
    <line x1="0" y1="8" x2="24" y2="8" stroke="#e2e8f0" stroke-width="0.5"/>
    <line x1="0" y1="12" x2="24" y2="12" stroke="#e2e8f0" stroke-width="0.5"/>
    <line x1="0" y1="16" x2="24" y2="16" stroke="#e2e8f0" stroke-width="0.5"/>
    
    <!-- Line graph -->
    <polyline points="0,16 6,12 12,8 18,6 24,4" 
              fill="none" 
              stroke="url(#chartGradient)" 
              stroke-width="2" 
              stroke-linecap="round"/>
    
    <!-- Data points -->
    <circle cx="0" cy="16" r="2" fill="#4f46e5"/>
    <circle cx="6" cy="12" r="2" fill="#4f46e5"/>
    <circle cx="12" cy="8" r="2" fill="#4f46e5"/>
    <circle cx="18" cy="6" r="2" fill="#4f46e5"/>
    <circle cx="24" cy="4" r="2" fill="#4f46e5"/>
    
    <!-- Axes -->
    <line x1="0" y1="0" x2="0" y2="18" stroke="#64748b" stroke-width="1"/>
    <line x1="0" y1="18" x2="26" y2="18" stroke="#64748b" stroke-width="1"/>
  </g>
  
  <!-- Data Table Section -->
  <g transform="translate(34, 32)">
    <!-- Table grid -->
    <rect x="0" y="0" width="24" height="18" fill="#ffffff" stroke="#cbd5e1" stroke-width="1" rx="2"/>
    
    <!-- Table rows -->
    <line x1="0" y1="6" x2="24" y2="6" stroke="#e2e8f0" stroke-width="1"/>
    <line x1="0" y1="12" x2="24" y2="12" stroke="#e2e8f0" stroke-width="1"/>
    
    <!-- Table columns -->
    <line x1="8" y1="0" x2="8" y2="18" stroke="#e2e8f0" stroke-width="1"/>
    <line x1="16" y1="0" x2="16" y2="18" stroke="#e2e8f0" stroke-width="1"/>
    
    <!-- Data dots -->
    <circle cx="4" cy="3" r="1" fill="#64748b"/>
    <circle cx="12" cy="3" r="1" fill="#64748b"/>
    <circle cx="20" cy="3" r="1" fill="#64748b"/>
    
    <circle cx="4" cy="9" r="1" fill="#64748b"/>
    <circle cx="12" cy="9" r="1" fill="#64748b"/>
    <circle cx="20" cy="9" r="1" fill="#64748b"/>
    
    <circle cx="4" cy="15" r="1" fill="#64748b"/>
    <circle cx="12" cy="15" r="1" fill="#64748b"/>
    <circle cx="20" cy="15" r="1" fill="#64748b"/>
  </g>
  
  <!-- Magnifying glass overlay for analysis -->
  <g transform="translate(48, 48)">
    <circle cx="6" cy="6" r="5" fill="none" stroke="#4f46e5" stroke-width="2"/>
    <line x1="10" y1="10" x2="13" y2="13" stroke="#4f46e5" stroke-width="2" stroke-linecap="round"/>
  </g>
</svg>